<mxfile host="app.diagrams.net" modified="2020-07-22T21:03:38.287Z" agent="5.0 (X11; Linux x86_64) AppleWebKit/537.36 (KHTML, like Gecko) Ubuntu Chromium/83.0.4103.61 Chrome/83.0.4103.61 Safari/537.36" etag="qHBQde51yXaKOqO5KCdh" version="13.5.1" type="github">
  <diagram id="kg3h4p2DxALflZ2OdesF" name="Page-1">
    <mxGraphModel dx="868" dy="531" grid="1" gridSize="10" guides="1" tooltips="1" connect="1" arrows="1" fold="1" page="1" pageScale="1" pageWidth="827" pageHeight="1169" math="0" shadow="0">
      <root>
        <mxCell id="0" />
        <mxCell id="1" parent="0" />
        <mxCell id="MWFNqAOH7jw8AL1K1xdl-30" style="edgeStyle=orthogonalEdgeStyle;rounded=0;orthogonalLoop=1;jettySize=auto;html=1;exitX=0.5;exitY=1;exitDx=0;exitDy=0;strokeColor=#000000;" edge="1" parent="1" source="MWFNqAOH7jw8AL1K1xdl-1" target="MWFNqAOH7jw8AL1K1xdl-2">
          <mxGeometry relative="1" as="geometry" />
        </mxCell>
        <mxCell id="MWFNqAOH7jw8AL1K1xdl-1" value="dÃ©finir deux variables&amp;nbsp;&lt;br&gt;X , Y" style="ellipse;whiteSpace=wrap;html=1;" vertex="1" parent="1">
          <mxGeometry x="330" y="40" width="140" height="80" as="geometry" />
        </mxCell>
        <mxCell id="MWFNqAOH7jw8AL1K1xdl-31" style="edgeStyle=orthogonalEdgeStyle;rounded=0;orthogonalLoop=1;jettySize=auto;html=1;exitX=1;exitY=0.5;exitDx=0;exitDy=0;entryX=0.5;entryY=0;entryDx=0;entryDy=0;strokeColor=#000000;" edge="1" parent="1" source="MWFNqAOH7jw8AL1K1xdl-2" target="MWFNqAOH7jw8AL1K1xdl-15">
          <mxGeometry relative="1" as="geometry" />
        </mxCell>
        <mxCell id="MWFNqAOH7jw8AL1K1xdl-32" style="edgeStyle=orthogonalEdgeStyle;rounded=0;orthogonalLoop=1;jettySize=auto;html=1;exitX=0;exitY=0.5;exitDx=0;exitDy=0;entryX=0.5;entryY=0;entryDx=0;entryDy=0;strokeColor=#000000;" edge="1" parent="1" source="MWFNqAOH7jw8AL1K1xdl-2" target="MWFNqAOH7jw8AL1K1xdl-4">
          <mxGeometry relative="1" as="geometry" />
        </mxCell>
        <mxCell id="MWFNqAOH7jw8AL1K1xdl-2" value="Est ce que X&amp;gt;Y" style="rhombus;whiteSpace=wrap;html=1;" vertex="1" parent="1">
          <mxGeometry x="325" y="180" width="150" height="80" as="geometry" />
        </mxCell>
        <mxCell id="MWFNqAOH7jw8AL1K1xdl-27" style="edgeStyle=orthogonalEdgeStyle;rounded=0;orthogonalLoop=1;jettySize=auto;html=1;exitX=0.5;exitY=1;exitDx=0;exitDy=0;strokeColor=#000000;" edge="1" parent="1" source="MWFNqAOH7jw8AL1K1xdl-4" target="MWFNqAOH7jw8AL1K1xdl-24">
          <mxGeometry relative="1" as="geometry" />
        </mxCell>
        <mxCell id="MWFNqAOH7jw8AL1K1xdl-4" value="x" style="ellipse;whiteSpace=wrap;html=1;" vertex="1" parent="1">
          <mxGeometry x="170" y="280" width="140" height="80" as="geometry" />
        </mxCell>
        <mxCell id="MWFNqAOH7jw8AL1K1xdl-26" style="edgeStyle=orthogonalEdgeStyle;rounded=0;orthogonalLoop=1;jettySize=auto;html=1;exitX=0.5;exitY=1;exitDx=0;exitDy=0;entryX=1;entryY=0.5;entryDx=0;entryDy=0;strokeColor=#000000;" edge="1" parent="1" source="MWFNqAOH7jw8AL1K1xdl-15" target="MWFNqAOH7jw8AL1K1xdl-24">
          <mxGeometry relative="1" as="geometry" />
        </mxCell>
        <mxCell id="MWFNqAOH7jw8AL1K1xdl-15" value="y" style="ellipse;whiteSpace=wrap;html=1;" vertex="1" parent="1">
          <mxGeometry x="490" y="280" width="140" height="80" as="geometry" />
        </mxCell>
        <mxCell id="MWFNqAOH7jw8AL1K1xdl-19" value="NO" style="text;html=1;strokeColor=none;fillColor=none;align=center;verticalAlign=middle;whiteSpace=wrap;rounded=0;" vertex="1" parent="1">
          <mxGeometry x="480" y="230" width="70" height="20" as="geometry" />
        </mxCell>
        <mxCell id="MWFNqAOH7jw8AL1K1xdl-20" value="YES" style="text;html=1;strokeColor=none;fillColor=none;align=center;verticalAlign=middle;whiteSpace=wrap;rounded=0;" vertex="1" parent="1">
          <mxGeometry x="260" y="230" width="70" height="20" as="geometry" />
        </mxCell>
        <mxCell id="MWFNqAOH7jw8AL1K1xdl-23" value="" style="endArrow=none;html=1;strokeColor=#000000;" edge="1" parent="1" target="MWFNqAOH7jw8AL1K1xdl-24">
          <mxGeometry width="50" height="50" relative="1" as="geometry">
            <mxPoint x="560" y="400" as="sourcePoint" />
            <mxPoint x="560" y="360" as="targetPoint" />
          </mxGeometry>
        </mxCell>
        <mxCell id="MWFNqAOH7jw8AL1K1xdl-24" value="afficher le plus grand" style="ellipse;whiteSpace=wrap;html=1;" vertex="1" parent="1">
          <mxGeometry x="340" y="360" width="140" height="80" as="geometry" />
        </mxCell>
      </root>
    </mxGraphModel>
  </diagram>
</mxfile>
